<svg width="32" height="32" viewBox="0 0 32 32" fill="none" xmlns="http://www.w3.org/2000/svg">
<path d="M23.7889 22.4526C23.7556 22.5526 23.6915 22.6395 23.6059 22.7009C23.5202 22.7624 23.4173 22.7951 23.3119 22.7946H8.80989C8.70483 22.7947 8.60239 22.7617 8.51712 22.7003C8.43185 22.639 8.36809 22.5523 8.33489 22.4526C8.19616 22.0016 8.21526 21.5168 8.38905 21.0782C8.56284 20.6395 8.88094 20.2732 9.29089 20.0396C10.5779 19.2066 10.6909 15.5706 10.6909 15.5706V13.6056C10.6876 12.3755 11.0999 11.1804 11.861 10.214C12.6221 9.24762 13.6873 8.56667 14.8839 8.28158C15.2492 8.19908 15.6224 8.15584 15.9969 8.15258C16.709 8.14304 17.416 8.27508 18.0767 8.54103C18.7374 8.80698 19.3387 9.20153 19.8456 9.70178C20.3526 10.202 20.7551 10.798 21.0298 11.4551C21.3045 12.1122 21.446 12.8174 21.4459 13.5296V15.8426C21.5019 16.7026 21.7599 19.3426 22.8339 20.0426C23.2426 20.2766 23.5598 20.6425 23.7333 21.0804C23.9068 21.5183 23.9264 22.0021 23.7889 22.4526Z" stroke="#0A1326" strokeMiterlimit="10" strokeLinecap="round" strokeLinejoin="round"/>
<path d="M18.3189 22.7937C18.3189 23.3926 18.081 23.9669 17.6576 24.3904C17.2341 24.8138 16.6598 25.0517 16.0609 25.0517C15.4621 25.0517 14.8877 24.8138 14.4643 24.3904C14.0408 23.9669 13.8029 23.3926 13.8029 22.7937H18.3189Z" stroke="#0A1326" strokeMiterlimit="10" strokeLinecap="round" strokeLinejoin="round"/>
<path d="M17.2449 8.1496C17.2451 8.1927 17.2428 8.23578 17.2379 8.2786C16.8303 8.18767 16.4135 8.14438 15.9959 8.1496C15.6216 8.15425 15.2488 8.19884 14.8839 8.2826C14.8787 8.23846 14.876 8.19405 14.8759 8.1496C14.8849 7.84141 15.0136 7.54885 15.2348 7.33402C15.4559 7.11919 15.7521 6.99902 16.0604 6.99902C16.3687 6.99902 16.6649 7.11919 16.8861 7.33402C17.1072 7.54885 17.236 7.84141 17.2449 8.1496V8.1496Z" stroke="#0A1326" strokeMiterlimit="10" strokeLinecap="round" strokeLinejoin="round"/>
</svg>
