<svg width="24" height="24" viewBox="0 0 24 24" fill="none" xmlns="http://www.w3.org/2000/svg">
<path d="M15.625 18.5619L13.4594 20.115L14.2906 17.5994L12.125 16.1775H14.7938L15.625 13.5525L16.4562 16.1775H19.125L16.9594 17.5994L17.7906 20.115L15.625 18.5619Z" fill="#9B9B9B"/>
<path d="M11.6437 16.8994C11.4905 16.7945 11.3746 16.6435 11.3129 16.4683C11.2511 16.2931 11.2467 16.1028 11.3003 15.9249C11.3539 15.7471 11.4627 15.5909 11.611 15.479C11.7592 15.3671 11.9393 15.3053 12.125 15.3025H13.4813C12.6719 14.9744 12.65 14.6025 12.65 14.34V13.99C13.0956 13.5774 13.4143 13.0462 13.5687 12.4588C14.1156 12.4588 14.225 11.3432 14.225 11.19C14.225 11.0369 14.2469 10.3588 13.7 10.3588C14.8813 7.5369 11.775 6.0494 9.45625 7.66815C8.49375 7.66815 8.42812 8.95878 8.77813 10.3588C8.23125 10.3588 8.25312 11.015 8.25312 11.19C8.25312 11.365 8.38438 12.4588 8.90937 12.4588C9.0638 13.0462 9.38251 13.5774 9.82812 13.99V14.34C9.82812 14.69 9.82812 15.215 8.05625 15.565C6.28437 15.915 6 17.49 6 17.49H12.5187L11.6437 16.8994Z" fill="#9B9B9B"/>
</svg>
