<svg width="24" height="24" viewBox="0 0 24 24" fill="none" xmlns="http://www.w3.org/2000/svg">
<path d="M11.9548 5.0006C10.9608 5.00048 9.97823 5.21489 9.07346 5.62938C8.16869 6.04387 7.36272 6.64881 6.70988 7.4034C6.05704 8.158 5.5725 9.04472 5.28894 10.0038C5.00537 10.9629 4.92937 11.972 5.06605 12.9631C5.30509 14.1225 6.19607 15.5006 9.10804 15.5006C9.71193 15.489 10.3144 15.4378 10.9117 15.3475C11.214 15.3007 11.5188 15.2715 11.8244 15.26C12.1069 15.26 12.1504 15.3037 12.1504 15.3256C12.1504 15.3475 12.2156 15.4131 12.1721 15.7412C12.1287 16.0694 12.0635 15.8506 11.694 15.9162C11.3246 15.9819 10.2163 16.2006 10.2163 17.4475C10.2163 18.3444 10.9552 18.935 12.1721 19.0006H12.2156C13.3793 18.9632 14.5151 18.6322 15.5187 18.0381H15.5405L15.7143 17.9069L15.9316 17.7756H15.9751C17.2068 16.9265 18.1345 15.701 18.6207 14.2801C19.107 12.8593 19.1262 11.3187 18.6753 9.88607C18.2245 8.45345 17.3276 7.20492 16.1173 6.3251C14.907 5.44528 13.4476 4.98089 11.9548 5.0006ZM9.17323 13.16C8.99071 13.3431 8.75837 13.4676 8.50557 13.5179C8.25277 13.5682 7.99083 13.5419 7.75285 13.4424C7.51486 13.343 7.31149 13.1747 7.16842 12.959C7.02535 12.7433 6.94899 12.4897 6.94899 12.2303C6.94899 11.9709 7.02535 11.7173 7.16842 11.5016C7.31149 11.2858 7.51486 11.1176 7.75285 11.0181C7.99083 10.9187 8.25277 10.8924 8.50557 10.9427C8.75837 10.993 8.99071 11.1175 9.17323 11.3006C9.29479 11.4225 9.39124 11.5674 9.45705 11.727C9.52285 11.8865 9.55673 12.0575 9.55673 12.2303C9.55673 12.403 9.52285 12.5741 9.45705 12.7336C9.39124 12.8932 9.29479 13.038 9.17323 13.16ZM9.73824 9.79123C9.57398 9.95657 9.3512 10.0495 9.11891 10.0495C8.88661 10.0495 8.66383 9.95657 8.49957 9.79123C8.33531 9.62588 8.24303 9.40162 8.24303 9.16779C8.24303 8.93396 8.33531 8.7097 8.49957 8.54435C8.66572 8.38263 8.88779 8.29223 9.11891 8.29223C9.35002 8.29223 9.5721 8.38263 9.73824 8.54435C9.82037 8.62577 9.8856 8.72282 9.93012 8.82985C9.97464 8.93688 9.99756 9.05176 9.99756 9.16779C9.99756 9.28382 9.97464 9.3987 9.93012 9.50573C9.8856 9.61276 9.82037 9.70981 9.73824 9.79123ZM12.7154 8.8506C12.5364 9.02721 12.3023 9.13609 12.0526 9.1588C11.803 9.18151 11.5533 9.11665 11.3457 8.97521C11.1382 8.83377 10.9856 8.62445 10.9138 8.38272C10.842 8.14099 10.8555 7.88171 10.9519 7.64882C11.0483 7.41593 11.2217 7.22374 11.4427 7.10483C11.6638 6.98592 11.9189 6.9476 12.1648 6.99636C12.4107 7.04512 12.6323 7.17796 12.7921 7.37237C12.9518 7.56678 13.0399 7.81081 13.0414 8.0631C13.0373 8.3516 12.9201 8.62679 12.7154 8.82873V8.8506ZM15.7578 10.1631C15.5788 10.3397 15.3446 10.4486 15.095 10.4713C14.8454 10.494 14.5956 10.4292 14.3881 10.2877C14.1805 10.1463 14.0279 9.93695 13.9561 9.69522C13.8844 9.45349 13.8978 9.19421 13.9942 8.96132C14.0906 8.72842 14.264 8.53624 14.4851 8.41733C14.7062 8.29842 14.9613 8.2601 15.2072 8.30886C15.4531 8.35762 15.6747 8.49045 15.8344 8.68487C15.9942 8.87928 16.0823 9.12331 16.0837 9.3756C16.0796 9.6641 15.9625 9.93929 15.7578 10.1412V10.1631Z" fill="#9B9B9B"/>
</svg>
