<svg width="24" height="24" viewBox="0 0 24 24" fill="none" xmlns="http://www.w3.org/2000/svg">
<path d="M14.7996 7.38C17.1192 7.38 18.9996 6.84722 18.9996 6.19C18.9996 5.53278 17.1192 5 14.7996 5C12.48 5 10.5996 5.53278 10.5996 6.19C10.5996 6.84722 12.48 7.38 14.7996 7.38Z" stroke="#202020" strokeMiterlimit="10" strokeLinecap="round" strokeLinejoin="round"/>
<path d="M10.5996 8.01011C10.5996 8.66345 12.4896 9.20011 14.7996 9.20011C17.1096 9.20011 18.9996 8.66345 18.9996 8.01011M10.5996 9.87678C10.5996 10.5301 12.4896 11.0668 14.7996 11.0668C17.1096 11.0668 18.9996 10.5301 18.9996 9.87678M10.5996 11.7434C10.5996 12.3968 12.4896 12.9334 14.7996 12.9334C17.1096 12.9334 18.9996 12.3968 18.9996 11.7434M13.3996 14.7301C13.8429 14.7768 14.3096 14.8001 14.7996 14.8001C17.1096 14.8001 18.9996 14.2634 18.9996 13.6101M10.5996 12.9568V6.28345" stroke="#202020" strokeMiterlimit="10" strokeLinecap="round" strokeLinejoin="round"/>
<path d="M19.0004 6.18994V15.4766C19.0004 16.1299 17.1104 16.6666 14.8004 16.6666C14.3104 16.6666 13.8437 16.6433 13.4004 16.5966" stroke="#202020" strokeMiterlimit="10" strokeLinecap="round" strokeLinejoin="round"/>
<path d="M9.2 15.2667C11.5196 15.2667 13.4 14.7339 13.4 14.0767C13.4 13.4195 11.5196 12.8867 9.2 12.8867C6.8804 12.8867 5 13.4195 5 14.0767C5 14.7339 6.8804 15.2667 9.2 15.2667Z" stroke="#202020" strokeMiterlimit="10" strokeLinecap="round" strokeLinejoin="round"/>
<path d="M5 15.9434C5 16.5967 6.86667 17.1334 9.2 17.1334C11.5333 17.1334 13.4 16.5967 13.4 15.9434" stroke="#202020" strokeMiterlimit="10" strokeLinecap="round" strokeLinejoin="round"/>
<path d="M13.4 14.0767V17.81C13.4 18.4633 11.51 19 9.2 19C6.89 19 5 18.4633 5 17.81V14.17" stroke="#202020" strokeMiterlimit="10" strokeLinecap="round" strokeLinejoin="round"/>
</svg>
