<svg width="24" height="24" viewBox="0 0 24 24" fill="none" xmlns="http://www.w3.org/2000/svg">
<path d="M15.2667 10.6C15.2667 12.0233 14.4733 13.2833 13.6333 14.0533V14.8C13.6333 15.2667 13.8667 15.99 16.2 16.4333C16.8588 16.5594 17.4696 16.8662 17.9641 17.3195C18.4585 17.7728 18.8172 18.3546 19 19H5C5.10758 18.3583 5.41267 17.7662 5.87275 17.3061C6.33282 16.846 6.92497 16.5409 7.56667 16.4333C9.9 16.0133 10.3667 15.2667 10.3667 14.8V14.0533C9.52667 13.2833 8.73333 12.0467 8.73333 10.6V8.36C8.73333 5.93333 10.46 5 12 5C13.54 5 15.2667 5.93333 15.2667 8.36V10.6Z" stroke="#202020" strokeMiterlimit="10" strokeLinecap="round" strokeLinejoin="round"/>
</svg>
