<svg width="24" height="24" viewBox="0 0 24 24" fill="none" xmlns="http://www.w3.org/2000/svg">
<path d="M17.6667 16.8V6.13333M7 6.13333V16.8M17.6667 4.8C17.6667 4.58783 17.5824 4.38434 17.4324 4.23431C17.2823 4.08429 17.0788 4 16.8667 4H7.8C7.58783 4 7.38434 4.08429 7.23431 4.23431C7.08429 4.38434 7 4.58783 7 4.8V6.13333H17.6667V4.8ZM7 16.8V19.2C7 19.4122 7.08429 19.6157 7.23431 19.7657C7.38434 19.9157 7.58783 20 7.8 20H16.8667C17.0788 20 17.2823 19.9157 17.4324 19.7657C17.5824 19.6157 17.6667 19.4122 17.6667 19.2V16.8H7Z" stroke="#202020" strokeLinecap="round" strokeLinejoin="round"/>
<path d="M11.8 18.3999H12.8667" stroke="#202020" strokeLinecap="round" strokeLinejoin="round"/>
</svg>
