<svg width="24" height="24" viewBox="0 0 24 24" fill="none" xmlns="http://www.w3.org/2000/svg">
<path d="M12 19C15.866 19 19 15.866 19 12C19 8.13401 15.866 5 12 5C8.13401 5 5 8.13401 5 12C5 15.866 8.13401 19 12 19Z" stroke="#202020" strokeMiterlimit="10" strokeLinecap="round" strokeLinejoin="round"/>
<path d="M11.5 11H12V15.9982M11.5 16H12.5" stroke="#202020" strokeMiterlimit="10" strokeLinecap="round" strokeLinejoin="round"/>
<path d="M11.75 9.5C12.1642 9.5 12.5 9.16421 12.5 8.75C12.5 8.33579 12.1642 8 11.75 8C11.3358 8 11 8.33579 11 8.75C11 9.16421 11.3358 9.5 11.75 9.5Z" fill="#202020"/>
</svg>
