<svg width="24" height="24" viewBox="0 0 24 24" fill="none" xmlns="http://www.w3.org/2000/svg">
<g clip-path="url(#clip0_462_7744)">
<path d="M16 11H15.75V7.75C15.75 6.75544 15.3549 5.80161 14.6517 5.09835C13.9484 4.39509 12.9946 4 12 4C11.0054 4 10.0516 4.39509 9.34835 5.09835C8.64509 5.80161 8.25 6.75544 8.25 7.75V11H8C7.46957 11 6.96086 11.2107 6.58579 11.5858C6.21071 11.9609 6 12.4696 6 13V18C6 18.5304 6.21071 19.0391 6.58579 19.4142C6.96086 19.7893 7.46957 20 8 20H16C16.5304 20 17.0391 19.7893 17.4142 19.4142C17.7893 19.0391 18 18.5304 18 18V13C18 12.4696 17.7893 11.9609 17.4142 11.5858C17.0391 11.2107 16.5304 11 16 11ZM9.25 7.75C9.25 7.02065 9.53973 6.32118 10.0555 5.80546C10.5712 5.28973 11.2707 5 12 5C12.7293 5 13.4288 5.28973 13.9445 5.80546C14.4603 6.32118 14.75 7.02065 14.75 7.75V11H9.25V7.75ZM12.5 16.75C12.5 16.8826 12.4473 17.0098 12.3536 17.1036C12.2598 17.1973 12.1326 17.25 12 17.25C11.8674 17.25 11.7402 17.1973 11.6464 17.1036C11.5527 17.0098 11.5 16.8826 11.5 16.75V14.25C11.5 14.1174 11.5527 13.9902 11.6464 13.8964C11.7402 13.8027 11.8674 13.75 12 13.75C12.1326 13.75 12.2598 13.8027 12.3536 13.8964C12.4473 13.9902 12.5 14.1174 12.5 14.25V16.75Z" fill="#202020"/>
</g>
<defs>
<clipPath id="clip0_462_7744">
<rect width="16" height="16" fill="white" transform="translate(4 4)"/>
</clipPath>
</defs>
</svg>
